<?xml version="1.0" encoding="UTF-8" standalone="no"?>
<!-- Created with Inkscape (http://www.inkscape.org/) -->

<svg
   width="156.67339mm"
   height="215.0403mm"
   viewBox="0 0 156.67339 215.0403"
   version="1.1"
   id="svg1"
   xml:space="preserve"
   xmlns="http://www.w3.org/2000/svg"
   xmlns:svg="http://www.w3.org/2000/svg"><defs
     id="defs1" /><g
     id="layer1"
     transform="translate(-224.93509,-81.578582)"><g
       id="g143"
       transform="translate(198.07129,46.043514)"
       style="display:inline"><path
         id="path144"
         style="display:inline;fill:#f5af22"
         d="m 107.03412,35.547371 c -3.6172,-0.07298 -7.213858,0.178514 -10.777639,0.756027 -1.044888,0.169324 -2.077847,0.36325 -3.099552,0.581359 -2.04341,0.436219 -4.042567,0.970642 -6.005319,1.606621 -0.981376,0.317989 -1.953422,0.661343 -2.917651,1.030428 -2.892688,1.107253 -5.71275,2.446172 -8.487337,4.027144 -0.924863,0.526991 -1.844791,1.080748 -2.760555,1.661914 -1.989493,1.262582 -3.966979,2.72795 -5.885429,4.344955 -0.959225,0.808502 -1.904005,1.654996 -2.827734,2.533178 -1.84746,1.756365 -3.611653,3.639241 -5.246192,5.598625 -0.817269,0.979692 -1.60239,1.978477 -2.348694,2.989998 -1.492608,2.023044 -2.831458,4.097057 -3.969266,6.171717 -0.679142,1.238335 -1.311427,2.476891 -1.895492,3.711401 -0.584065,1.234511 -1.119578,2.464961 -1.605587,3.688147 -0.723368,1.82057 -1.297825,3.614524 -1.795756,5.389335 h -0.07493 l 0.180351,-0.750342 H 37.190836 26.863817 l 0.148312,7.47448 c 0.14762,7.434395 0.884237,18.924622 1.666048,25.995312 0.225265,2.03729 0.513953,4.7162 0.641821,5.95313 0.127869,1.23693 0.367861,3.20145 0.533301,4.36562 0.165439,1.16416 0.403177,2.9501 0.528133,3.96875 0.124955,1.01864 0.359295,2.626 0.520899,3.57188 0.161605,0.94589 0.404565,2.4937 0.540018,3.43958 0.135454,0.94589 0.368872,2.37464 0.518315,3.175 0.149442,0.80037 0.382328,2.16959 0.517798,3.04271 0.208129,1.34143 0.701983,3.75457 2.381767,11.64166 1.062118,4.98696 2.95976,12.58328 3.966166,15.875 0.31144,1.01864 0.81618,2.68553 1.121378,3.70417 1.523778,5.08585 4.423727,13.42954 5.539197,15.93805 0.27431,0.61687 0.498678,1.27788 0.498678,1.46864 0,0.19077 0.09767,0.46017 0.217041,0.59841 0.119371,0.13824 0.556777,1.08458 0.972033,2.10323 2.552073,6.26037 6.664122,14.3836 10.045382,19.84324 8.4395,13.62706 17.204892,23.05423 28.376563,30.51906 1.340486,0.8957 2.496378,1.62833 2.568318,1.62833 0.07194,0 0.746368,0.36333 1.499134,0.80718 1.391255,0.82031 5.760668,3.04849 6.724654,3.42925 0.291041,0.11496 1.093199,0.45875 1.782837,0.7643 0.689638,0.30554 1.414107,0.55552 1.60972,0.55552 0.195614,0 0.44308,0.0875 0.54984,0.1943 0.10675,0.10676 1.16822,0.51243 2.35903,0.90176 1.1908,0.38932 2.2843,0.71713 2.42982,0.72863 0.14552,0.0115 1.27661,-0.32549 2.51354,-0.74931 1.99535,-0.68369 3.0137,-1.05882 5.93401,-2.18436 3.81082,-1.46877 12.64486,-6.65767 15.76183,-9.25835 0.50932,-0.42496 2.05713,-1.70414 3.43958,-2.8422 3.12572,-2.57316 8.42459,-7.99131 11.40447,-11.6613 2.37394,-2.92372 6.42058,-8.48494 7.31584,-10.05417 0.29057,-0.50932 1.21313,-2.05713 2.05052,-3.43958 0.83738,-1.38245 1.86452,-3.08755 2.28254,-3.78892 1.49761,-2.51276 6.61281,-13.16162 8.02949,-16.71629 0.40597,-1.01864 0.9599,-2.35659 1.23145,-2.97347 0.27155,-0.61688 0.49402,-1.28181 0.49402,-1.47742 0,-0.19562 0.0791,-0.43464 0.1757,-0.53124 0.20777,-0.20777 0.79326,-1.80845 2.24328,-6.13037 0.58588,-1.74625 1.15869,-3.41312 1.27279,-3.70417 0.23694,-0.60436 1.09832,-3.39594 1.59215,-5.15937 0.18339,-0.65484 0.42515,-1.48829 0.53692,-1.85209 0.11177,-0.36381 0.35046,-1.19723 0.53071,-1.85208 0.18026,-0.65484 0.49088,-1.7264 0.68988,-2.38125 0.19899,-0.65484 0.47064,-1.7264 0.6041,-2.38125 0.13346,-0.65484 0.71598,-3.09562 1.2945,-5.42396 1.19938,-4.82705 1.83018,-7.62003 2.15129,-9.525 0.12264,-0.72761 0.41986,-2.33494 0.65991,-3.57187 1.17479,-6.05328 2.07272,-11.3598 2.52956,-14.94896 0.1667,-1.30969 0.40599,-3.03609 0.53226,-3.83646 0.12628,-0.80036 0.36338,-2.70536 0.52659,-4.23333 0.16321,-1.52797 0.40691,-3.61156 0.54157,-4.63021 0.23551,-1.78137 0.45773,-4.23544 1.05368,-11.64167 0.15222,-1.89177 0.32862,-4.034896 0.39222,-4.7625 0.23299,-2.665519 0.70969,-16.451064 0.62219,-17.991667 l -0.0899,-1.5875 -9.26042,-0.06459 c -9.24532,-0.06477 -9.26124,-0.06585 -9.76736,-0.661458 -0.2601,-0.303615 -0.35502,-0.333525 -0.36845,-0.227377 -0.12601,-0.399623 -0.21989,-0.758361 -0.34882,-1.148767 -0.44378,-1.343781 -0.88467,-2.571309 -1.18132,-3.255615 -0.20503,-0.472942 -0.5609,-1.30638 -0.79117,-1.852083 -0.84498,-2.002461 -2.15002,-4.463101 -3.62355,-6.900871 -1.47353,-2.43777 -3.1157,-4.852659 -4.63641,-6.763928 -1.26215,-1.586303 -2.65424,-3.142955 -4.14548,-4.644161 -0.74562,-0.750604 -1.51612,-1.487367 -2.30736,-2.207101 -2.37372,-2.159201 -4.93549,-4.165185 -7.57989,-5.931421 -0.88147,-0.588745 -1.77206,-1.150812 -2.66806,-1.683101 -0.896,-0.532289 -1.79733,-1.034349 -2.70009,-1.503784 -2.3758,-1.235408 -7.0779,-3.273672 -8.82995,-3.827157 -2.4322,-0.768344 -4.86495,-1.392858 -7.29465,-1.873787 -1.21485,-0.240465 -2.42938,-0.444904 -3.64215,-0.6134 -1.21278,-0.168495 -2.42415,-0.300941 -3.63389,-0.397391 -1.20974,-0.09645 -2.41782,-0.157058 -3.62355,-0.181385 z m 57.35929,43.948222 c 0.0184,0.04834 0.0346,0.09383 0.0532,0.142627 h -0.01 c -0.0142,-0.04777 -0.029,-0.09449 -0.0434,-0.142627 z" /><path
         style="font-variation-settings:normal;display:inline;opacity:1;vector-effect:none;fill:#53110c;fill-opacity:1;stroke-width:1;stroke-linecap:butt;stroke-linejoin:miter;stroke-miterlimit:4;stroke-dasharray:none;stroke-dashoffset:0;stroke-opacity:1;-inkscape-stroke:none;stop-color:#000000;stop-opacity:1"
         d="m 103.61872,245.74981 c -1.56265,-0.6244 -3.16138,-1.05516 -4.716525,-1.7033 -2.44658,-0.99025 -7.787418,-3.61268 -8.202083,-4.02735 -0.07276,-0.0728 -0.54901,-0.35577 -1.058333,-0.62891 -7.926705,-4.25093 -18.361778,-14.0168 -24.885012,-23.28911 -0.501525,-0.71288 -1.239285,-1.7589 -1.639467,-2.32448 -3.537049,-4.99892 -8.896977,-14.94064 -11.428483,-20.85333 -0.7165,-1.67349 -1.63801,-3.78983 -2.0478,-4.70298 -0.409789,-0.91315 -0.745072,-1.77797 -0.745072,-1.92182 0,-0.14385 -0.105171,-0.46829 -0.233714,-0.72098 -0.670369,-1.3178 -1.663251,-4.06574 -3.320762,-9.19068 -0.84716,-2.61937 -1.634187,-5.00062 -1.748949,-5.29167 -0.114761,-0.29104 -0.286164,-0.82682 -0.380895,-1.19062 -0.09473,-0.3638 -0.275038,-1.01865 -0.400684,-1.45521 -0.125645,-0.43656 -0.468351,-1.68672 -0.761568,-2.77812 -0.293217,-1.09141 -0.842458,-3.11547 -1.220536,-4.49792 -0.378077,-1.38245 -0.813248,-3.10885 -0.967045,-3.83646 -0.153798,-0.7276 -0.394145,-1.79917 -0.534104,-2.38125 -0.13996,-0.58208 -0.36061,-1.59411 -0.490335,-2.24896 -0.281943,-1.42324 -0.579901,-2.88777 -1.13041,-5.55625 -1.034306,-5.01356 -2.419125,-12.90852 -2.854175,-16.27187 -0.131762,-1.01865 -0.363045,-2.80458 -0.513962,-3.96875 -0.864921,-6.67197 -1.459563,-12.5855 -1.982108,-19.71146 -0.08003,-1.09141 -0.258549,-3.53219 -0.396705,-5.42396 -0.138155,-1.891768 -0.33029,-6.500173 -0.426968,-10.240898 -0.15741,-6.090671 -0.12969,-6.871653 0.265297,-7.474479 l 0.441072,-0.673162 h 7.101878 7.101877 l 0.457489,-1.918229 c 1.123824,-4.712146 3.091698,-9.664887 5.808266,-14.618229 4.551234,-8.298637 12.31921,-16.588088 20.27718,-21.638415 7.326112,-4.649334 14.911177,-7.552718 23.270278,-8.907315 9.503418,-1.540034 19.243108,-0.763508 28.971878,2.309868 1.75205,0.553485 6.45436,2.591334 8.83016,3.826742 7.22211,3.755485 14.35215,9.624621 19.40074,15.969832 3.04141,3.822538 6.56984,9.659888 8.2598,13.664809 0.23027,0.545703 0.58642,1.379141 0.79145,1.852083 0.59331,1.368612 1.76251,4.908963 2.38106,7.209896 l 0.56901,2.116667 7.07981,0.132291 c 5.90493,0.110338 7.12139,0.198153 7.33036,0.529167 0.75868,1.20178 -0.0963,22.392552 -1.31834,32.676042 -0.13834,1.16417 -0.37885,3.30729 -0.53446,4.7625 -0.15562,1.45521 -0.39255,3.41974 -0.52653,4.36562 -0.13397,0.94589 -0.37197,2.73183 -0.52889,3.96875 -0.34557,2.72397 -0.74973,5.49403 -1.0616,7.27605 -0.12734,0.7276 -0.373,2.15635 -0.54592,3.175 -0.42211,2.48655 -1.77757,9.37534 -2.26463,11.50937 -0.21588,0.94589 -0.49802,2.19604 -0.62698,2.77812 -0.46286,2.0893 -0.83802,3.71997 -1.06525,4.63021 -0.12715,0.50933 -0.37143,1.52136 -0.54286,2.24896 -0.17142,0.72761 -0.41957,1.68011 -0.55143,2.11667 -0.45876,1.51882 -2.3977,8.20729 -2.60783,8.99583 -0.32525,1.22051 -1.09232,3.64302 -1.34046,4.23333 -0.12234,0.29105 -0.39843,1.06495 -0.61353,1.7198 -1.09504,3.33362 -3.84852,10.46847 -5.0829,13.17086 -0.35094,0.76829 -0.63807,1.45001 -0.63807,1.51492 0,0.5374 -5.54286,11.26526 -7.36112,14.24699 -0.60805,0.99713 -1.10555,1.85622 -1.10555,1.90908 0,0.0799 -2.13096,3.32517 -3.89729,5.93523 -0.53725,0.79388 -4.94003,6.42473 -5.88503,7.52656 -7.30824,8.521 -15.47634,14.94438 -24.61351,19.35603 -1.38245,0.66747 -2.97128,1.44039 -3.53074,1.71758 -0.3444,0.17064 -7.07782,2.64141 -7.84635,2.5985 -0.21828,-0.0122 -1.19147,-0.28093 -2.16264,-0.59719 z m 6.20751,-3.25029 c 6.63269,-2.58454 10.91647,-4.88719 16.6334,-8.94092 1.21451,-0.86117 2.26772,-1.63944 2.34048,-1.72949 0.0728,-0.09 1.32292,-1.18225 2.77813,-2.42712 2.29858,-1.96633 6.53835,-6.28438 9.05932,-9.22658 1.39072,-1.6231 4.94051,-6.40139 6.58472,-8.86354 5.56741,-8.33704 10.59632,-18.50739 14.65272,-29.63333 0.31833,-0.87313 0.68057,-1.82563 0.80498,-2.11667 0.46114,-1.07879 3.23171,-9.70274 3.95257,-12.30312 0.68035,-2.65263 1.4721,-5.2757 2.11604,-7.9375 0.17458,-0.80037 0.41665,-1.8124 0.53794,-2.24896 0.12128,-0.43656 0.53558,-2.2225 0.92066,-3.96875 0.9578,-4.16365 1.77193,-8.35951 2.51376,-12.56771 0.15886,-0.94589 0.39583,-2.3151 0.5266,-3.04271 0.363,-2.01973 0.7465,-4.5795 1.44686,-9.65729 1.64319,-11.91366 2.63192,-23.75026 2.94168,-35.21653 0.13862,-5.131139 0.10466,-6.269016 -0.19041,-6.381266 -0.19751,-0.07514 -2.77173,-0.157864 -5.72049,-0.18384 -6.19441,-0.05457 -5.87831,-0.206519 -5.37929,2.585812 0.40049,2.241013 0.41007,13.499434 0.0134,15.721834 -0.65264,3.6563 -0.85323,4.65078 -1.37262,6.80524 -1.23877,5.13845 -4.38343,12.7918 -6.59678,16.05496 -0.4126,0.60831 -0.75018,1.18702 -0.75018,1.28604 0,0.22464 -2.0796,3.22433 -3.53695,5.10182 -2.02325,2.60653 -7.67534,8.47329 -9.44913,9.80801 -0.3108,0.23387 -0.93912,0.73002 -1.39628,1.10257 -4.2677,3.47789 -12.10494,7.72378 -17.36764,9.40908 -0.65485,0.2097 -1.39737,0.49659 -1.65006,0.63752 -1.09781,0.0709 -1.98554,0.67031 -3.03985,0.88085 -0.54925,0.0918 -1.53442,0.27517 -2.18926,0.40757 -4.16683,0.84245 -6.49065,1.11389 -10.71563,1.25168 -6.58068,0.2146 -11.821381,-0.3041 -17.462496,-1.72837 -0.582084,-0.14697 -1.415521,-0.34104 -1.852084,-0.43128 -0.436562,-0.0902 -1.031875,-0.26816 -1.322916,-0.39539 -0.291042,-0.12723 -1.064948,-0.40515 -1.719792,-0.61759 -1.927209,-0.62523 -3.675347,-1.35845 -6.35,-2.66337 -2.553561,-1.24584 -2.820968,-1.39113 -5.768417,-3.13419 -1.524818,-0.90175 -5.333091,-3.60176 -6.032528,-4.27698 -0.160363,-0.15481 -0.870621,-0.75772 -1.578351,-1.3398 -4.741997,-3.98154 -8.670688,-8.79672 -11.985773,-13.97525 -1.072647,-1.56342 -3.504887,-6.27687 -4.530107,-8.77892 -0.47702,-1.16417 -0.965069,-2.35479 -1.084554,-2.64583 -0.119486,-0.29105 -0.412192,-1.18401 -0.650458,-1.98438 -2.799589,-9.40414 -3.529158,-16.291637 -2.6296,-24.824727 0.219769,-2.084694 0.335597,-3.89388 0.257395,-4.020412 -0.0782,-0.126532 -2.669263,-0.206811 -5.757916,-0.178397 l -5.615733,0.05166 0.0089,6.614583 c 0.01179,8.795753 0.788012,19.382363 2.260052,30.823963 0.159139,1.23692 0.387456,3.08239 0.507371,4.10104 0.212382,1.80413 0.501006,3.768 1.06934,7.27604 0.153242,0.94589 0.392767,2.43417 0.532278,3.30729 0.782074,4.8946 1.191158,6.96322 2.903928,14.68438 0.112982,0.50932 0.348501,1.58088 0.523375,2.38125 0.174874,0.80036 0.419564,1.87192 0.543755,2.38125 0.124192,0.50932 0.34089,1.40229 0.481552,1.98437 1.084633,4.48842 3.795577,13.80921 4.28913,14.74693 0.132997,0.25269 0.241813,0.64126 0.241813,0.86349 0,0.22223 0.114903,0.6108 0.25534,0.86348 0.140437,0.25269 0.630779,1.59053 1.08965,2.97298 0.778693,2.34598 3.091762,8.31387 4.512143,11.64166 1.22197,2.86294 5.789976,11.89475 7.229057,14.29321 0.806241,1.34374 1.465893,2.49979 1.465893,2.569 0,0.50189 7.385144,10.75622 8.911907,12.37425 0.274624,0.29104 0.694582,0.8108 0.933239,1.15502 0.504157,0.72716 4.776908,5.11877 6.856334,7.04706 1.822848,1.69037 3.683994,3.23592 5.52352,4.58692 0.800365,0.5878 1.93372,1.42611 2.518568,1.86291 0.584847,0.4368 1.360429,0.95021 1.723515,1.14093 0.363086,0.19071 1.015668,0.59696 1.450183,0.90278 1.485022,1.04522 4.031089,2.33631 7.738928,4.05193 0.98855,0.52144 2.683239,1.20754 5.089639,2.06054 2.95636,1.04795 3.42407,1.0243 6.95528,-0.35169 z m 7.33222,-12.39888 c 0,-0.18088 0.20835,-0.61366 0.46302,-0.96174 0.25466,-0.34808 0.62304,-0.91623 0.81863,-1.26255 0.19558,-0.34633 0.60218,-1.05986 0.90354,-1.58562 5.03691,-8.78748 10.35399,-19.79744 13.55872,-28.07573 0.53517,-1.38245 1.07327,-2.75167 1.19576,-3.04271 0.75894,-1.80324 3.91157,-11.14424 4.24165,-12.56771 0.11811,-0.50932 0.33194,-1.34276 0.47518,-1.85208 1.22876,-4.36913 2.68946,-10.61209 3.18816,-13.62605 0.14447,-0.87312 0.38096,-2.30187 0.52552,-3.175 0.38765,-2.34138 0.79304,-5.81535 0.94169,-8.06979 0.22726,-3.44671 0.24777,-3.48876 2.62301,-5.37746 2.37934,-1.89197 8.51884,-8.07052 9.96298,-10.02633 0.50706,-0.68673 1.01852,-1.25228 1.13658,-1.25678 0.11805,-0.004 0.14223,0.55737 0.0537,1.24859 -0.34169,2.66837 -1.11703,6.82702 -1.46978,8.73505 -0.3939,2.13065 -0.64815,3.48044 -1.01569,5.22172 -0.67838,3.28357 -1.71692,7.52763 -2.68689,10.98021 -0.30663,1.09141 -0.66712,2.4011 -0.8011,2.91042 -0.45745,1.73901 -1.35635,4.62834 -1.89322,6.08542 -0.2949,0.80036 -0.62908,1.81239 -0.74262,2.24895 -0.11354,0.43657 -0.52417,1.68672 -0.91252,2.77813 -0.70481,1.98081 -0.88468,2.45669 -1.40008,3.70417 -0.1503,0.3638 -0.41811,1.07817 -0.59513,1.5875 -0.17702,0.50932 -0.60576,1.55437 -0.95275,2.32233 -0.34699,0.76796 -0.63088,1.44959 -0.63088,1.51473 0,0.0651 -0.3388,0.86556 -0.75288,1.77871 -0.41408,0.91315 -0.97963,2.19083 -1.25677,2.8393 -0.79277,1.85493 -4.30356,8.73164 -6.41959,12.57424 -0.23887,0.43378 -0.82126,1.35529 -1.2942,2.04781 -0.47294,0.69251 -0.8599,1.31372 -0.8599,1.38046 0,0.13968 -3.94884,6.12432 -5.59737,8.48304 -3.01418,4.31272 -10.80679,13.28212 -10.80679,12.43877 z m -26.167019,-3.28188 c -1.20038,-1.29146 -2.362186,-2.60463 -2.581793,-2.91816 -0.219606,-0.31353 -0.657291,-0.84414 -0.972634,-1.17914 -3.21937,-3.41998 -10.310881,-13.7318 -13.760022,-20.00855 -1.217924,-2.21638 -5.24498,-10.26583 -6.027234,-12.04749 -0.38119,-0.8682 -0.94487,-2.13883 -1.252622,-2.82361 -0.307752,-0.68478 -1.107988,-2.64931 -1.778302,-4.36562 -0.670314,-1.71632 -1.322144,-3.35869 -1.448513,-3.64974 -0.126368,-0.29104 -0.87623,-2.49369 -1.666359,-4.89479 -2.049044,-6.22676 -2.495765,-7.68359 -3.083007,-10.05416 -0.12617,-0.50933 -0.364295,-1.4023 -0.529166,-1.98438 -0.366384,-1.29352 -0.508255,-1.86411 -1.71043,-6.87917 -1.12072,-4.67524 -1.551171,-6.8067 -2.244188,-11.11249 -0.140529,-0.87313 -0.38565,-2.36141 -0.544713,-3.3073 -0.531261,-3.1592 -0.700089,-4.78828 -0.508499,-4.90669 0.104435,-0.0645 0.250149,0.0397 0.323809,0.23166 0.287804,0.75001 4.654161,5.99937 7.051814,8.4779 1.389849,1.43673 3.376201,3.30817 4.414116,4.15876 l 1.887118,1.54652 0.162138,2.58811 c 0.23884,3.81248 0.663988,7.21774 1.479291,11.84853 0.153723,0.87313 0.342419,2.00422 0.419324,2.51355 0.0769,0.50932 0.24962,1.34276 0.383811,1.85208 0.134192,0.50932 0.604462,2.41432 1.045045,4.23333 0.440583,1.81901 1.169147,4.55745 1.619032,6.08542 0.449885,1.52797 0.913056,3.13531 1.02927,3.57187 0.268651,1.00921 2.312901,6.97065 2.631137,7.67292 0.322791,0.71233 1.04376,2.6442 1.530495,4.10104 1.310218,3.92164 8.704354,19.95868 12.348609,26.2576 0.135356,1.1419 1.718882,2.71424 2.114516,3.57417 0.163787,0.48641 0.819348,1.65092 1.60071,2.84343 0.919059,1.40266 0.209776,0.87949 -1.932753,-1.4256 z m 21.148349,-0.0825 c -0.005,-0.10229 0.12547,-0.51901 0.28911,-0.92604 0.16364,-0.40703 0.38583,-0.97818 0.49377,-1.26922 0.10793,-0.29104 0.3153,-0.82683 0.46082,-1.19063 0.14552,-0.3638 0.38364,-0.95911 0.52917,-1.32291 0.14552,-0.36381 0.39032,-0.95912 0.54401,-1.32292 0.15369,-0.3638 0.48778,-1.25677 0.74242,-1.98438 0.25464,-0.7276 0.53933,-1.44198 0.63265,-1.5875 0.0933,-0.14552 0.68237,-1.87192 1.30901,-3.83645 0.62663,-1.96454 1.23059,-3.81 1.34211,-4.10105 0.11153,-0.29104 0.33297,-1.00541 0.49209,-1.5875 0.15912,-0.58208 0.52323,-1.89177 0.80912,-2.91041 2.08388,-7.42494 3.14152,-12.69608 3.98159,-19.84375 0.15393,-1.30969 0.33076,-2.55985 0.39296,-2.77813 0.0622,-0.21828 0.18706,-2.77812 0.27747,-5.68854 0.13677,-4.40273 -0.0152,-8.81926 -0.46869,-13.62187 -0.0573,-0.60667 0.1259,-0.71994 2.37911,-1.47104 3.18201,-1.06069 5.35323,-2.02482 7.62184,-3.15943 2.17795,-1.08925 3.98966,-1.98222 4.02604,-1.98437 0.16394,-0.01 0.0418,2.35268 -0.19045,3.68433 -0.14113,0.80912 -0.38587,2.3641 -0.54386,3.45551 -0.33252,2.29702 -0.73045,4.49961 -1.05162,5.82083 -0.12382,0.50932 -0.37131,1.64042 -0.54999,2.51354 -0.53006,2.59013 -2.45005,9.97383 -2.8896,11.1125 -0.11235,0.29104 -0.35071,1.06495 -0.52969,1.71979 -0.37156,1.3594 -0.75012,2.53968 -1.06079,3.30729 -0.11779,0.29105 -0.59509,1.66026 -1.06067,3.04271 -0.83591,2.4821 -1.39644,3.92916 -1.86901,4.82506 -0.13328,0.25269 -0.24234,0.62135 -0.24234,0.81924 0,0.1979 -0.16561,0.70553 -0.36802,1.12807 -0.34546,0.72117 -0.83114,1.82416 -1.61982,3.67867 -2.01847,4.74628 -5.79678,12.31107 -8.55663,17.13177 -0.31242,0.54571 -0.79181,1.387 -1.06532,1.86954 -1.64187,2.89663 -4.23993,6.84994 -4.25679,6.47729 z m -16.6885,-2.88018 c -0.936465,-1.51507 -1.834132,-2.99279 -1.994816,-3.28383 -0.45485,-0.82386 -1.278946,-2.2456 -2.223767,-3.83646 -0.866403,-1.45883 -6.088835,-11.76946 -6.088835,-12.02117 0,-0.0737 -0.310506,-0.82212 -0.690013,-1.66318 -0.72366,-1.60376 -1.336342,-3.01988 -1.691845,-3.91044 -0.116182,-0.29104 -0.443514,-1.06495 -0.727406,-1.71979 -0.283893,-0.65485 -0.841086,-2.0836 -1.238208,-3.175 -0.397122,-1.09141 -0.819541,-2.2225 -0.938707,-2.51355 -0.119167,-0.29104 -0.359761,-0.94588 -0.534654,-1.4552 -0.174893,-0.50933 -0.410788,-1.16417 -0.524211,-1.45521 -0.113423,-0.29104 -0.592112,-1.77933 -1.063752,-3.30729 -0.471641,-1.52797 -0.955074,-3.07579 -1.074296,-3.43959 -0.288274,-0.87966 -1.784281,-6.56837 -2.365707,-8.99583 -0.637313,-2.61933 -1.151634,-5.27526 -1.586617,-7.9375 -0.161682,-1.09141 -0.404805,-2.57969 -0.540273,-3.30729 -0.255626,-1.37298 -0.390811,-2.45598 -0.686628,-5.50073 l -0.174547,-1.79656 2.222078,1.2826 c 3.090247,1.78372 7.224924,3.75379 10.180752,4.85087 l 1.608674,0.59708 -0.123136,6.83895 c -0.170361,9.46172 0.43985,16.27133 2.366057,26.40383 1.387318,7.29776 5.004464,19.68713 7.686036,26.32604 0.293892,0.7276 0.625194,1.56104 0.736226,1.85208 0.250514,0.65666 0.788016,1.93134 1.132573,2.68589 0.142961,0.31307 0.209924,0.71924 0.148808,0.90259 -0.06112,0.18334 -0.87732,-0.90624 -1.813786,-2.42131 z M 111.87442,153.826 c 0.95009,-0.45429 2.17496,-1.27351 2.72194,-1.82048 0.96985,-0.96985 2.57237,-3.89242 3.11599,-5.68274 0.85613,-2.81949 1.29884,-4.83893 1.15806,-5.28249 -0.16435,-0.51782 -1.33528,-1.51883 -2.50745,-2.14359 -0.36285,-0.1934 -3.69359,-2.36658 -7.40164,-4.8293 l -6.74192,-4.47767 -5.561205,0.31675 c -3.058664,0.17422 -6.692302,0.31362 -8.07475,0.30978 -3.514168,-0.01 -11.17733,0.56701 -11.57552,0.87123 -0.710544,1.6905 -1.265031,3.41102 -2.053107,5.074 -1.341663,2.7954 -1.644333,4.26726 -1.209547,5.88193 0.798685,2.96609 5.063259,6.38643 11.001716,8.82378 0.708015,0.2906 3.418571,1.16005 4.894792,1.57009 0.654843,0.18189 1.488281,0.42716 1.852083,0.54505 0.973113,0.31534 4.342536,0.97922 6.614583,1.30328 2.722745,0.38835 4.578235,0.47856 8.598955,0.41809 3.25335,-0.0489 3.53312,-0.0965 5.16702,-0.87771 z m 6.80175,-0.44324 c 0.99929,-0.21021 2.40606,-0.56833 3.12615,-0.79582 0.72009,-0.2275 1.72597,-0.54027 2.23529,-0.69505 5.97519,-1.81586 13.95655,-6.20637 19.18229,-10.55208 3.8858,-3.23141 11.77396,-12.38036 11.77396,-13.6558 0,-0.4261 -0.43056,-0.44456 -6.26568,-0.26868 -4.23135,0.12754 -6.52929,0.30261 -7.0776,0.5392 -0.44656,0.19269 -1.81619,1.32835 -3.04363,2.52369 -4.08973,3.98279 -9.29292,7.44463 -13.90788,9.25332 -3.71801,1.45719 -4.01757,1.88464 -5.00556,4.37613 -0.40394,1.01864 -0.84192,2.11997 -0.97329,2.44739 -0.13137,0.32742 -0.34199,0.8632 -0.46804,1.19063 -0.84449,1.50227 -1.16027,3.22226 -1.88748,4.75883 -0.29105,0.60238 -0.52917,1.13241 -0.52917,1.17784 0,0.18106 1.11445,0.0635 2.84064,-0.2996 z M 89.377195,129.17084 c 2.401094,-0.13476 5.972969,-0.32581 7.9375,-0.42455 1.964532,-0.0987 3.808865,-0.30398 4.098515,-0.45607 1.78225,-0.9358 2.96943,-2.96827 9.51811,-16.29504 2.30639,-4.69358 2.72178,-6.2081 1.92765,-7.02833 -0.1819,-0.18788 -1.16417,-1.50114 -2.18282,-2.91837 -1.01864,-1.41722 -2.92364,-4.031426 -4.23333,-5.809339 -1.30969,-1.777912 -3.49045,-4.891219 -4.84614,-6.918459 -3.968042,-5.933645 -4.304423,-6.081997 -13.140843,-5.795393 -3.349555,0.10864 -7.399787,0.217535 -9.000517,0.241988 -2.461754,0.03761 -3.09396,0.138391 -4.101041,0.653779 -1.640986,0.839797 -2.8175,2.024185 -3.567801,3.591678 -1.041214,2.175254 -2.916503,6.506272 -3.552854,8.205389 -0.327002,0.873125 -0.704097,1.794244 -0.837989,2.04693 -0.133892,0.252687 -0.24344,0.581407 -0.24344,0.730488 0,0.149081 -0.227,0.775775 -0.504445,1.392649 -1.176132,2.61505 -2.407503,6.21213 -2.406766,7.03065 9.65e-4,1.07122 1.155914,4.01946 2.793091,7.12994 1.003476,1.9065 5.035477,7.86402 6.05847,8.95175 0.152547,0.1622 1.161603,1.33101 2.242346,2.59736 1.080743,1.26634 2.390431,2.52735 2.910417,2.80225 1.115645,0.58979 4.137252,0.66327 11.131887,0.2707 z m 62.293445,-2.94294 c 3.99277,-0.70974 4.3868,-0.84173 5.1676,-1.73101 1.42032,-1.61766 4.05851,-7.7379 5.26123,-12.20533 1.64768,-6.12025 2.00575,-8.83584 2.01475,-15.279687 0.008,-5.599816 -0.10101,-6.466301 -1.11328,-8.863542 -1.56832,-3.714026 -2.45215,-4.808075 -4.2488,-5.259368 -1.61417,-0.405459 -8.16236,-0.630302 -8.77697,-0.301372 -0.63148,0.337957 -1.15008,1.480904 -1.61541,3.56023 -0.48003,2.145029 -0.59824,1.503756 -0.88422,2.421416 -0.14787,0.474477 -0.41158,1.756123 -1.82032,5.135344 -0.73278,1.757765 -1.20566,2.669128 -3.10716,5.988189 -0.51199,0.89368 -1.88981,2.79396 -3.19983,4.41316 l -0.81603,1.00863 0.67014,1.50491 c 1.76371,3.96068 2.28686,6.87996 2.46453,13.75243 0.0779,3.01375 0.1876,5.62838 0.24373,5.81028 0.13121,0.42517 7.43297,0.45937 9.76004,0.0457 z M 61.758059,107.57797 c 1.309171,-0.19934 1.539659,-0.58555 2.753037,-4.61297 2.53682,-8.420172 4.490881,-12.563947 8.449862,-17.918756 l 0.56746,-0.76753 -0.575404,-1.174045 c -0.316471,-0.645725 -0.679559,-1.38079 -0.806861,-1.633477 -0.26332,-1.340902 -0.821888,-2.57099 -1.1746,-3.906194 -0.435084,-1.686053 -0.512066,-2.913077 -0.512066,-8.161903 v -6.177528 l -0.926042,0.14192 c -1.2233,0.187474 -6.830949,1.151844 -7.672916,1.319542 -4.463747,0.889059 -5.299202,1.336519 -7.033667,3.767154 -0.642629,0.900564 -1.168417,1.706221 -1.168417,1.790347 0,0.08413 -0.370109,0.961976 -0.822465,1.950776 -0.452356,0.988799 -0.928606,2.065708 -1.058333,2.39313 -0.129728,0.327421 -0.346459,0.863203 -0.481626,1.190625 -1.33459,3.232856 -2.64285,8.519922 -3.438387,13.895535 -0.363578,2.456777 -0.378857,11.084254 -0.02002,11.306024 0.01063,0.007 1.328085,4.31084 2.665088,5.69649 0.353212,0.36606 0.999391,0.79075 1.435954,0.94377 0.760939,0.2667 7.993579,0.23509 9.819405,-0.0429 z m 62.941011,-1.68316 c 9.6579,-0.61191 10.30394,-0.69443 12.13157,-1.54968 1.27625,-0.59723 1.98608,-1.15349 2.82451,-2.2134 3.89868,-4.928586 5.51352,-8.329048 8.4714,-17.838642 0.31669,-1.018163 0.3295,-3.672849 0.0207,-4.284284 -0.12763,-0.252687 -0.67859,-1.3524 -1.22436,-2.443806 -0.86556,-1.730894 -3.96364,-6.568598 -5.14688,-8.036917 -1.0194,-1.265017 -6.05493,-6.948333 -6.43264,-7.260165 -0.73252,-0.60476 -3.47642,-0.794492 -14.25118,-0.985424 l -10.48607,-0.185816 -0.95214,0.891974 c -0.96492,0.903948 -1.79058,2.423225 -7.74606,14.253431 -3.400683,6.755253 -3.489299,7.128408 -2.145809,9.035854 0.472939,0.671469 1.390439,1.978954 2.038879,2.905521 0.64843,0.926567 1.77953,2.475882 2.51354,3.442923 0.73401,0.967041 1.81081,2.440174 2.39289,3.273629 0.58209,0.833456 1.1846,1.649584 1.33892,1.813619 0.15432,0.164035 0.978,1.310277 1.83039,2.547204 4.18367,6.071029 5.65103,7.212429 9.00153,7.001939 0.87312,-0.0549 3.4925,-0.22044 5.82083,-0.36796 z M 61.516368,63.808467 c 4.093697,-0.755456 5.637877,-1.06392 6.724858,-1.343352 0.526206,-0.135272 1.276259,-0.24595 1.666785,-0.24595 1.045064,0 2.204655,-0.689308 3.989872,-2.37174 4.520476,-4.260208 10.032517,-7.694388 15.532504,-9.677251 1.537946,-0.554462 1.803376,-0.847229 2.869064,-3.16455 1.487902,-3.235421 2.545504,-5.525529 3.031285,-6.56388 0.284026,-0.607101 0.375471,-1.103567 0.230054,-1.248984 -0.364288,-0.364288 -8.22091,1.580245 -9.685734,2.397243 -0.252687,0.140935 -0.57658,0.256246 -0.719763,0.256246 -0.497218,0 -5.950046,2.567595 -8.213514,3.867531 -1.390817,0.798762 -5.627726,3.567714 -5.820834,3.804096 -0.07276,0.08907 -0.965729,0.822644 -1.984375,1.630175 -2.849945,2.25929 -7.390572,6.937131 -9.694627,9.987591 -1.143632,1.514114 -2.079331,2.853567 -2.079331,2.976562 0,0.346148 1.04701,0.269587 4.153756,-0.303737 z M 134.3349,59.627813 c 0.52522,-0.552119 1.66553,-2.427353 2.53402,-4.167188 0.8685,-1.739834 1.64073,-3.222866 1.71607,-3.295626 0.33237,-0.320964 1.32758,-2.472583 1.32715,-2.869275 -2.6e-4,-0.240909 -0.56581,-0.79007 -1.25677,-1.220358 -0.69097,-0.430287 -1.31583,-0.847006 -1.38859,-0.926041 -0.0728,-0.07904 -0.4165,-0.303726 -0.76385,-0.499311 -0.34736,-0.195585 -1.03197,-0.582538 -1.52136,-0.859895 -0.48938,-0.277358 -1.27674,-0.722214 -1.74969,-0.988568 -8.6704,-4.883051 -22.65885,-7.82144 -31.66833,-6.652197 -2.297035,0.298106 -3.389781,0.939698 -4.825807,2.833407 -1.245476,1.642428 -3.920964,6.812895 -3.920964,7.577391 0,0.674534 0.124562,0.775498 5.55625,4.503581 2.110051,1.448251 4.355251,2.999362 4.989341,3.446912 0.63409,0.447551 1.4207,0.992322 1.74802,1.210603 0.32733,0.218282 1.29681,0.873125 2.15441,1.455209 l 1.55927,1.058333 3.30729,0.147856 c 1.81901,0.08132 7.34409,0.170618 12.27795,0.198438 l 8.97065,0.05058 z M 103.61872,245.74981 c -1.5583,-0.64973 -3.16173,-1.04414 -4.716523,-1.7033 -2.44658,-0.99025 -7.787418,-3.61268 -8.202083,-4.02735 -0.07276,-0.0728 -0.54901,-0.35577 -1.058333,-0.62891 -7.926705,-4.25093 -18.361778,-14.0168 -24.885012,-23.28911 -0.501525,-0.71288 -1.239285,-1.7589 -1.639467,-2.32448 -3.53705,-4.99892 -8.896978,-14.94064 -11.428484,-20.85333 -0.7165,-1.67349 -1.63801,-3.78983 -2.0478,-4.70298 -0.409789,-0.91315 -0.745072,-1.77797 -0.745072,-1.92182 0,-0.14385 -0.105171,-0.46829 -0.233714,-0.72098 -0.670369,-1.3178 -1.663251,-4.06574 -3.320762,-9.19068 -0.84716,-2.61937 -1.634187,-5.00062 -1.748949,-5.29167 -0.114761,-0.29104 -0.286164,-0.82682 -0.380895,-1.19062 -0.09473,-0.3638 -0.275038,-1.01865 -0.400684,-1.45521 -0.125645,-0.43656 -0.468351,-1.68672 -0.761568,-2.77812 -0.293217,-1.09141 -0.842458,-3.11547 -1.220536,-4.49792 -0.378077,-1.38245 -0.813248,-3.10885 -0.967045,-3.83646 -0.153798,-0.7276 -0.394145,-1.79917 -0.534104,-2.38125 -0.13996,-0.58208 -0.36061,-1.59411 -0.490335,-2.24896 -0.281943,-1.42324 -0.579901,-2.88777 -1.13041,-5.55625 -1.034306,-5.01356 -2.419125,-12.90852 -2.854175,-16.27187 -0.131762,-1.01865 -0.363045,-2.80458 -0.513962,-3.96875 -0.864921,-6.67197 -1.459563,-12.5855 -1.982108,-19.71146 -0.08003,-1.09141 -0.258549,-3.53219 -0.396705,-5.42396 -0.138155,-1.891768 -0.33029,-6.500174 -0.426968,-10.240899 -0.15741,-6.090671 -0.12969,-6.871653 0.265297,-7.474479 l 0.441072,-0.673162 h 7.101878 7.101877 l 0.457489,-1.918229 c 1.123824,-4.712146 3.091698,-9.664887 5.808266,-14.618229 4.551234,-8.298637 12.319211,-16.588088 20.277181,-21.638415 7.326112,-4.649334 14.911177,-7.552718 23.270278,-8.907315 9.503416,-1.540034 19.243106,-0.763508 28.971876,2.309868 1.75205,0.553485 6.45436,2.591334 8.83016,3.826742 7.22211,3.755485 14.35215,9.624621 19.40074,15.969832 3.04141,3.822538 6.56984,9.659888 8.2598,13.664809 0.23027,0.545703 0.58642,1.379141 0.79145,1.852083 0.59331,1.368612 1.76251,4.908963 2.38106,7.209896 l 0.56901,2.116667 7.07981,0.132291 c 5.90493,0.110338 7.12139,0.198153 7.33036,0.529167 0.75868,1.20178 -0.0963,22.392553 -1.31834,32.676043 -0.13834,1.16417 -0.37885,3.30729 -0.53446,4.7625 -0.15562,1.45521 -0.39255,3.41974 -0.52653,4.36562 -0.13397,0.94589 -0.37197,2.73183 -0.52889,3.96875 -0.34557,2.72397 -0.74973,5.49403 -1.0616,7.27605 -0.12734,0.7276 -0.373,2.15635 -0.54592,3.175 -0.42211,2.48655 -1.77757,9.37534 -2.26463,11.50937 -0.21588,0.94589 -0.49802,2.19604 -0.62698,2.77812 -0.46286,2.0893 -0.83802,3.71997 -1.06525,4.63021 -0.12715,0.50933 -0.37143,1.52136 -0.54286,2.24896 -0.17142,0.72761 -0.41957,1.68011 -0.55143,2.11667 -0.45876,1.51882 -2.3977,8.20729 -2.60783,8.99583 -0.32525,1.22051 -1.09232,3.64302 -1.34046,4.23333 -0.12234,0.29105 -0.39843,1.06495 -0.61353,1.7198 -1.09504,3.33362 -3.84852,10.46847 -5.0829,13.17086 -0.35094,0.76829 -0.63807,1.45001 -0.63807,1.51492 0,0.5374 -5.54286,11.26526 -7.36112,14.24699 -0.60805,0.99713 -1.10555,1.85622 -1.10555,1.90908 0,0.0799 -2.13096,3.32517 -3.89729,5.93523 -0.53725,0.79388 -4.94003,6.42473 -5.88503,7.52656 -7.30824,8.521 -15.47634,14.94438 -24.61351,19.35603 -1.38245,0.66747 -2.97128,1.44039 -3.53074,1.71758 -0.32328,0.16018 -7.3186,2.62797 -7.84635,2.5985 -0.21828,-0.0122 -1.19147,-0.28093 -2.16264,-0.59719 z m 6.20751,-3.25029 c 6.63269,-2.58454 10.91647,-4.88719 16.6334,-8.94092 1.21451,-0.86117 2.26772,-1.63944 2.34048,-1.72949 0.0728,-0.09 1.32292,-1.18225 2.77813,-2.42712 2.29858,-1.96633 6.53835,-6.28438 9.05932,-9.22658 1.39072,-1.6231 4.94051,-6.40139 6.58472,-8.86354 5.56741,-8.33704 10.59632,-18.50739 14.65272,-29.63333 0.31833,-0.87313 0.68057,-1.82563 0.80498,-2.11667 0.46114,-1.07879 3.23171,-9.70274 3.95257,-12.30312 0.76597,-2.65249 1.534,-5.22929 2.11604,-7.9375 0.17458,-0.80037 0.41665,-1.8124 0.53794,-2.24896 0.12128,-0.43656 0.53558,-2.2225 0.92066,-3.96875 1.01113,-4.15305 1.79293,-8.35572 2.51376,-12.56771 0.15886,-0.94589 0.39583,-2.3151 0.5266,-3.04271 0.363,-2.01973 0.7465,-4.5795 1.44686,-9.65729 1.64319,-11.91366 2.63192,-23.75026 2.94168,-35.216531 0.13862,-5.131139 0.10466,-6.269016 -0.19041,-6.381266 -0.19751,-0.07514 -2.77173,-0.157864 -5.72049,-0.18384 -6.19441,-0.05457 -5.87831,-0.206519 -5.37929,2.585812 0.40049,2.241013 0.41007,13.499435 0.0134,15.721835 -0.65264,3.6563 -0.85323,4.65078 -1.37262,6.80524 -1.23877,5.13845 -4.38343,12.7918 -6.59678,16.05496 -0.4126,0.60831 -0.75018,1.18702 -0.75018,1.28604 0,0.22464 -2.0796,3.22433 -3.53695,5.10182 -2.02325,2.60653 -7.67534,8.47329 -9.44913,9.80801 -0.3108,0.23387 -0.93912,0.73002 -1.39628,1.10257 -4.2677,3.47789 -12.10494,7.72378 -17.36764,9.40908 -0.65485,0.2097 -1.37007,0.56461 -1.65006,0.63752 -1.43256,0.37305 -1.99623,0.67244 -3.03985,0.88085 -0.54925,0.0918 -1.53442,0.27517 -2.18926,0.40757 -4.16683,0.84245 -6.49065,1.11389 -10.71563,1.25168 -6.58068,0.2146 -11.821379,-0.3041 -17.462494,-1.72837 -0.582084,-0.14697 -1.415521,-0.34104 -1.852084,-0.43128 -0.436562,-0.0902 -1.031875,-0.26816 -1.322916,-0.39539 -0.291042,-0.12723 -1.064948,-0.40515 -1.719792,-0.61759 -1.927209,-0.62523 -3.675347,-1.35845 -6.35,-2.66337 -2.553561,-1.24584 -2.820968,-1.39113 -5.768417,-3.13419 -1.524818,-0.90175 -5.333091,-3.60176 -6.032528,-4.27698 -0.160363,-0.15481 -0.870621,-0.75772 -1.578351,-1.3398 -4.741997,-3.98154 -8.670688,-8.79672 -11.985774,-13.97525 -1.072647,-1.56342 -3.504887,-6.27687 -4.530107,-8.77892 -0.47702,-1.16417 -0.965069,-2.35479 -1.084554,-2.64583 -0.119486,-0.29105 -0.412192,-1.18401 -0.650458,-1.98438 -2.799589,-9.40414 -3.529158,-16.291637 -2.6296,-24.824728 0.219769,-2.084694 0.335597,-3.89388 0.257395,-4.020412 -0.0782,-0.126532 -2.669263,-0.206811 -5.757916,-0.178397 l -5.615733,0.05166 0.0089,6.614583 c 0.01179,8.795754 0.788012,19.382364 2.260052,30.823964 0.159139,1.23692 0.387456,3.08239 0.507371,4.10104 0.212382,1.80413 0.501006,3.768 1.06934,7.27604 0.153242,0.94589 0.392767,2.43417 0.532278,3.30729 0.782074,4.8946 1.191158,6.96322 2.903928,14.68438 0.112982,0.50932 0.348501,1.58088 0.523375,2.38125 0.174874,0.80036 0.419564,1.87192 0.543755,2.38125 0.124192,0.50932 0.34089,1.40229 0.481552,1.98437 1.084633,4.48842 3.795577,13.80921 4.28913,14.74693 0.132997,0.25269 0.241813,0.64126 0.241813,0.86349 0,0.22223 0.114903,0.6108 0.25534,0.86348 0.140437,0.25269 0.630779,1.59053 1.08965,2.97298 0.778693,2.34598 3.091762,8.31387 4.512143,11.64166 1.22197,2.86294 5.789976,11.89475 7.229058,14.29321 0.806241,1.34374 1.465893,2.49979 1.465893,2.569 0,0.50189 7.385144,10.75622 8.911907,12.37425 0.274624,0.29104 0.694582,0.8108 0.933239,1.15502 0.504157,0.72716 4.776908,5.11877 6.856334,7.04706 1.822848,1.69037 3.683994,3.23592 5.52352,4.58692 0.800365,0.5878 1.93372,1.42611 2.518568,1.86291 0.584847,0.4368 1.360429,0.95021 1.723515,1.14093 0.363086,0.19071 1.015668,0.59696 1.450183,0.90278 0.73363,0.51636 5.99138,3.68888 12.828565,6.11247 2.95636,1.04795 3.42407,1.0243 6.95528,-0.35169 z m 7.33222,-12.39888 c 0,-0.18088 0.20835,-0.61366 0.46302,-0.96174 0.25466,-0.34808 0.62304,-0.91623 0.81863,-1.26255 0.19558,-0.34633 0.60218,-1.05986 0.90354,-1.58562 5.03691,-8.78748 10.35399,-19.79744 13.55872,-28.07573 0.53517,-1.38245 1.07327,-2.75167 1.19576,-3.04271 0.75894,-1.80324 3.91157,-11.14424 4.24165,-12.56771 0.11811,-0.50932 0.33194,-1.34276 0.47518,-1.85208 1.22876,-4.36913 2.68946,-10.61209 3.18816,-13.62605 0.14447,-0.87312 0.38096,-2.30187 0.52552,-3.175 0.38765,-2.34138 0.79304,-5.81535 0.94169,-8.06979 0.22726,-3.44671 0.24777,-3.48876 2.62301,-5.37746 2.37934,-1.89197 8.51884,-8.07052 9.96298,-10.02633 0.50706,-0.68673 1.01852,-1.25228 1.13658,-1.25678 0.11805,-0.004 0.14223,0.55737 0.0537,1.24859 -0.28806,2.24956 -1.56909,9.61522 -2.48547,13.95677 -0.67838,3.28357 -1.71692,7.52763 -2.68689,10.98021 -0.30663,1.09141 -0.66712,2.4011 -0.8011,2.91042 -0.45745,1.73901 -1.35635,4.62834 -1.89322,6.08542 -0.2949,0.80036 -0.62908,1.81239 -0.74262,2.24895 -0.11354,0.43657 -0.52417,1.68672 -0.91252,2.77813 -0.70481,1.98081 -0.88468,2.45669 -1.40008,3.70417 -0.1503,0.3638 -0.41811,1.07817 -0.59513,1.5875 -0.17702,0.50932 -0.60576,1.55437 -0.95275,2.32233 -0.34699,0.76796 -0.63088,1.44959 -0.63088,1.51473 0,0.0651 -0.3388,0.86556 -0.75288,1.77871 -0.41408,0.91315 -0.97963,2.19083 -1.25677,2.8393 -0.79277,1.85493 -4.30356,8.73164 -6.41959,12.57424 -0.23887,0.43378 -0.82126,1.35529 -1.2942,2.04781 -0.47294,0.69251 -0.8599,1.31372 -0.8599,1.38046 0,0.13968 -3.94884,6.12432 -5.59737,8.48304 -3.01418,4.31272 -10.80679,13.28212 -10.80679,12.43877 z m -26.167017,-3.28188 c -1.20038,-1.29146 -2.362186,-2.60463 -2.581793,-2.91816 -0.219606,-0.31353 -0.657291,-0.84414 -0.972634,-1.17914 -3.21937,-3.41998 -10.310881,-13.7318 -13.760022,-20.00855 -1.217924,-2.21638 -5.24498,-10.26583 -6.027234,-12.04749 -0.38119,-0.8682 -0.94487,-2.13883 -1.252622,-2.82361 -0.307752,-0.68478 -1.107988,-2.64931 -1.778302,-4.36562 -0.670314,-1.71632 -1.322144,-3.35869 -1.448513,-3.64974 -0.126368,-0.29104 -0.87623,-2.49369 -1.666359,-4.89479 -2.049045,-6.22676 -2.495766,-7.68359 -3.083008,-10.05416 -0.12617,-0.50933 -0.364295,-1.4023 -0.529166,-1.98438 -0.366384,-1.29352 -0.508255,-1.86411 -1.71043,-6.87917 -1.12072,-4.67524 -1.551171,-6.8067 -2.244188,-11.11249 -0.140529,-0.87313 -0.38565,-2.36141 -0.544713,-3.3073 -0.531261,-3.1592 -0.700089,-4.78828 -0.508499,-4.90669 0.104435,-0.0645 0.250149,0.0397 0.323809,0.23166 0.287804,0.75001 4.654161,5.99937 7.051815,8.4779 1.389849,1.43673 3.376201,3.30817 4.414116,4.15876 l 1.887118,1.54652 0.162138,2.58811 c 0.23884,3.81248 0.663988,7.21774 1.479291,11.84853 0.153723,0.87313 0.342419,2.00422 0.419324,2.51355 0.0769,0.50932 0.24962,1.34276 0.383811,1.85208 0.134192,0.50932 0.604462,2.41432 1.045045,4.23333 0.440583,1.81901 1.169147,4.55745 1.619032,6.08542 0.449885,1.52797 0.913056,3.13531 1.02927,3.57187 0.268651,1.00921 2.312901,6.97065 2.631137,7.67292 0.322791,0.71233 1.04376,2.6442 1.530495,4.10104 3.490215,9.02722 7.568385,17.83036 12.348609,26.2576 1.241526,1.99667 1.0694,1.66291 2.114516,3.57417 0.424613,0.77651 0.819348,1.65092 1.60071,2.84343 0.919059,1.40266 0.209776,0.87949 -1.932753,-1.4256 z m 21.148347,-0.0825 c -0.005,-0.10229 0.12547,-0.51901 0.28911,-0.92604 0.16364,-0.40703 0.38583,-0.97818 0.49377,-1.26922 0.10793,-0.29104 0.3153,-0.82683 0.46082,-1.19063 0.14552,-0.3638 0.38364,-0.95911 0.52917,-1.32291 0.14552,-0.36381 0.39032,-0.95912 0.54401,-1.32292 0.15369,-0.3638 0.48778,-1.25677 0.74242,-1.98438 0.25464,-0.7276 0.53933,-1.44198 0.63265,-1.5875 0.0933,-0.14552 0.68237,-1.87192 1.30901,-3.83645 0.62663,-1.96454 1.23059,-3.81 1.34211,-4.10105 0.11153,-0.29104 0.33297,-1.00541 0.49209,-1.5875 0.15912,-0.58208 0.52323,-1.89177 0.80912,-2.91041 2.08388,-7.42494 3.14152,-12.69608 3.98159,-19.84375 0.15393,-1.30969 0.33076,-2.55985 0.39296,-2.77813 0.0622,-0.21828 0.18706,-2.77812 0.27747,-5.68854 0.13677,-4.40273 -0.0152,-8.81926 -0.46869,-13.62187 -0.0573,-0.60667 0.1259,-0.71994 2.37911,-1.47104 3.18201,-1.06069 5.35323,-2.02482 7.62184,-3.15943 2.17795,-1.08925 3.98966,-1.98222 4.02604,-1.98437 0.16394,-0.01 0.0418,2.35268 -0.19045,3.68433 -0.14113,0.80912 -0.38587,2.3641 -0.54386,3.45551 -0.33252,2.29702 -0.73045,4.49961 -1.05162,5.82083 -0.12382,0.50932 -0.37131,1.64042 -0.54999,2.51354 -0.53006,2.59013 -2.45005,9.97383 -2.8896,11.1125 -0.11235,0.29104 -0.35071,1.06495 -0.52969,1.71979 -0.37156,1.3594 -0.75012,2.53968 -1.06079,3.30729 -0.11779,0.29105 -0.59509,1.66026 -1.06067,3.04271 -0.83591,2.4821 -1.39644,3.92916 -1.86901,4.82506 -0.13328,0.25269 -0.24234,0.62135 -0.24234,0.81924 0,0.1979 -0.16561,0.70553 -0.36802,1.12807 -0.34546,0.72117 -0.83114,1.82416 -1.61982,3.67867 -2.01847,4.74628 -5.79678,12.31107 -8.55663,17.13177 -0.31242,0.54571 -0.79181,1.387 -1.06532,1.86954 -1.64187,2.89663 -4.23993,6.84994 -4.25679,6.47729 z m -16.688498,-2.88018 c -0.936465,-1.51507 -1.834132,-2.99279 -1.994816,-3.28383 -0.45485,-0.82386 -1.278946,-2.2456 -2.223767,-3.83646 -0.866403,-1.45883 -6.088835,-11.76946 -6.088835,-12.02117 0,-0.0737 -0.310506,-0.82212 -0.690013,-1.66318 -0.72366,-1.60376 -1.336342,-3.01988 -1.691845,-3.91044 -0.116182,-0.29104 -0.443514,-1.06495 -0.727406,-1.71979 -0.283893,-0.65485 -0.841086,-2.0836 -1.238208,-3.175 -0.397122,-1.09141 -0.819541,-2.2225 -0.938707,-2.51355 -0.119167,-0.29104 -0.359761,-0.94588 -0.534654,-1.4552 -0.174893,-0.50933 -0.410788,-1.16417 -0.524211,-1.45521 -0.113423,-0.29104 -0.592112,-1.77933 -1.063752,-3.30729 -0.471641,-1.52797 -0.955074,-3.07579 -1.074296,-3.43959 -0.288274,-0.87966 -1.784281,-6.56837 -2.365707,-8.99583 -0.637313,-2.61933 -1.151634,-5.27526 -1.586617,-7.9375 -0.161682,-1.09141 -0.404805,-2.57969 -0.540273,-3.30729 -0.255626,-1.37298 -0.390811,-2.45598 -0.686628,-5.50073 l -0.174547,-1.79656 2.222078,1.2826 c 3.090247,1.78372 7.224924,3.75379 10.180752,4.85087 l 1.608674,0.59708 -0.123136,6.83895 c -0.170361,9.46172 0.43985,16.27133 2.366057,26.40383 1.387318,7.29776 5.004464,19.68713 7.686036,26.32604 0.293892,0.7276 0.625194,1.56104 0.736226,1.85208 0.250514,0.65666 0.788016,1.93134 1.132573,2.68589 0.142961,0.31307 0.209924,0.71924 0.148808,0.90259 -0.06112,0.18334 -0.87732,-0.90624 -1.813786,-2.42131 z M 111.87442,153.826 c 0.95009,-0.45429 2.17496,-1.27351 2.72194,-1.82048 0.96985,-0.96985 2.57237,-3.89242 3.11599,-5.68274 0.85613,-2.81949 1.29884,-4.83893 1.15806,-5.28249 -0.16435,-0.51782 -1.33528,-1.51883 -2.50745,-2.14359 -0.36285,-0.1934 -3.69359,-2.36658 -7.40164,-4.8293 l -6.74192,-4.47767 -5.561203,0.31675 c -3.058664,0.17422 -6.692302,0.31362 -8.07475,0.30978 -3.514168,-0.01 -11.17733,0.56701 -11.57552,0.87123 -0.710544,1.6905 -1.265031,3.41102 -2.053107,5.074 -1.341663,2.7954 -1.644333,4.26726 -1.209547,5.88193 0.798685,2.96609 5.063259,6.38643 11.001716,8.82378 0.708015,0.2906 3.418571,1.16005 4.894792,1.57009 0.654843,0.18189 1.488281,0.42716 1.852083,0.54505 0.973113,0.31534 4.342536,0.97922 6.614583,1.30328 2.722743,0.38835 4.578233,0.47856 8.598953,0.41809 3.25335,-0.0489 3.53312,-0.0965 5.16702,-0.87771 z m 6.80175,-0.44324 c 0.99929,-0.21021 2.40606,-0.56833 3.12615,-0.79582 0.72009,-0.2275 1.72597,-0.54027 2.23529,-0.69505 5.97519,-1.81586 13.95655,-6.20637 19.18229,-10.55208 3.8858,-3.23141 11.77396,-12.38036 11.77396,-13.6558 0,-0.4261 -0.43056,-0.44456 -6.26568,-0.26868 -4.23135,0.12754 -6.52929,0.30261 -7.0776,0.5392 -0.44656,0.19269 -1.81619,1.32835 -3.04363,2.52369 -4.08973,3.98279 -9.29292,7.44463 -13.90788,9.25332 -2.82815,0.86862 -3.76909,1.44233 -5.00556,4.37613 -0.40394,1.01864 -0.84192,2.11997 -0.97329,2.44739 -0.13137,0.32742 -0.34472,0.86216 -0.46804,1.19063 -0.74701,1.98967 -1.16027,3.22226 -1.88748,4.75883 -0.29105,0.60238 -0.52917,1.13241 -0.52917,1.17784 0,0.18106 1.11445,0.0635 2.84064,-0.2996 z M 89.377197,129.17084 c 2.401094,-0.13476 5.972969,-0.32581 7.9375,-0.42455 1.964532,-0.0987 3.808863,-0.30398 4.098513,-0.45607 1.78225,-0.9358 2.96943,-2.96827 9.51811,-16.29504 2.30639,-4.69358 2.72178,-6.2081 1.92765,-7.02833 -0.1819,-0.18788 -1.16417,-1.50114 -2.18282,-2.91837 -1.01864,-1.41722 -2.92364,-4.031426 -4.23333,-5.80934 -1.30969,-1.777912 -3.49045,-4.891219 -4.84614,-6.918459 -3.96804,-5.933645 -4.304421,-6.081997 -13.140841,-5.795393 -3.349555,0.10864 -7.399787,0.217535 -9.000517,0.241988 -2.461754,0.03761 -3.09396,0.138391 -4.101041,0.653779 -1.640986,0.839797 -2.8175,2.024185 -3.567801,3.591678 -1.041214,2.175254 -2.916503,6.506272 -3.552854,8.205389 -0.327002,0.873126 -0.704097,1.794245 -0.837989,2.046931 -0.133892,0.252687 -0.24344,0.581407 -0.24344,0.730488 0,0.149081 -0.227,0.775775 -0.504445,1.392649 -1.176132,2.61505 -2.407503,6.21213 -2.406766,7.03065 9.65e-4,1.07122 1.155914,4.01946 2.793091,7.12994 1.003476,1.9065 5.035477,7.86402 6.05847,8.95175 0.152547,0.1622 1.161603,1.33101 2.242346,2.59736 1.080743,1.26634 2.390431,2.52735 2.910417,2.80225 1.115645,0.58979 4.137252,0.66327 11.131887,0.2707 z m 62.293443,-2.94294 c 3.99277,-0.70974 4.3868,-0.84173 5.1676,-1.73101 1.42032,-1.61766 4.05851,-7.7379 5.26123,-12.20533 1.64768,-6.12025 2.00575,-8.83584 2.01475,-15.279688 0.008,-5.599816 -0.10101,-6.466301 -1.11328,-8.863542 -1.56832,-3.714026 -2.45215,-4.808075 -4.2488,-5.259368 -1.61417,-0.405459 -8.16236,-0.630302 -8.77697,-0.301372 -0.63148,0.337957 -1.15008,1.480904 -1.61541,3.56023 -0.46641,2.084176 -1.41042,4.452492 -2.70454,7.55676 -0.73278,1.757765 -1.20566,2.669128 -3.10716,5.98819 -0.51199,0.89368 -1.88981,2.79396 -3.19983,4.41316 l -0.81603,1.00863 0.67014,1.50491 c 1.76371,3.96068 2.28686,6.87996 2.46453,13.75243 0.0779,3.01375 0.1876,5.62838 0.24373,5.81028 0.13121,0.42517 7.43297,0.45937 9.76004,0.0457 z M 61.758061,107.57797 c 1.309171,-0.19934 1.539659,-0.58555 2.753037,-4.61297 2.53682,-8.420173 4.490881,-12.563948 8.449862,-17.918757 l 0.56746,-0.76753 -0.575404,-1.174045 c -0.316471,-0.645725 -0.605235,-1.124937 -0.806861,-1.633477 -0.586975,-1.480463 -0.821888,-2.57099 -1.1746,-3.906194 -0.435084,-1.686053 -0.512066,-2.913077 -0.512066,-8.161903 v -6.177528 l -0.926042,0.14192 c -1.2233,0.187474 -6.830949,1.151844 -7.672916,1.319542 -4.463748,0.889059 -5.299203,1.336519 -7.033668,3.767154 -0.642629,0.900564 -1.168417,1.706221 -1.168417,1.790347 0,0.08413 -0.370109,0.961976 -0.822465,1.950776 -0.452356,0.988799 -0.928606,2.065708 -1.058333,2.39313 -0.129728,0.327421 -0.346459,0.863203 -0.481626,1.190625 -1.33459,3.232856 -2.64285,8.519922 -3.438387,13.895535 -0.363578,2.456777 -0.47895,8.595046 -0.02002,11.306025 0.542602,3.20525 1.328085,4.31084 2.665088,5.69649 0.353212,0.36606 0.999391,0.79075 1.435954,0.94377 0.760939,0.2667 7.99358,0.23509 9.819406,-0.0429 z m 62.941009,-1.68316 c 9.6579,-0.61191 10.30394,-0.69443 12.13157,-1.54968 1.27625,-0.59723 1.98608,-1.15349 2.82451,-2.2134 3.89868,-4.928586 5.51352,-8.329049 8.4714,-17.838643 0.31669,-1.018163 0.3295,-3.672849 0.0207,-4.284284 -0.12763,-0.252687 -0.67859,-1.3524 -1.22436,-2.443806 -0.86556,-1.730894 -3.96364,-6.568598 -5.14688,-8.036917 -1.0194,-1.265017 -6.05493,-6.948333 -6.43264,-7.260165 -0.73252,-0.60476 -3.47642,-0.794492 -14.25118,-0.985424 l -10.48607,-0.185816 -0.95214,0.891974 c -0.96492,0.903948 -1.79058,2.423225 -7.74606,14.253431 -3.400681,6.755253 -3.489297,7.128408 -2.145807,9.035854 0.472937,0.671469 1.390437,1.978954 2.038877,2.905521 0.64843,0.926567 1.77953,2.475882 2.51354,3.442923 0.73401,0.967041 1.81081,2.440174 2.39289,3.273629 0.58209,0.833456 1.1846,1.649584 1.33892,1.813619 0.15432,0.164035 0.978,1.310278 1.83039,2.547205 4.18367,6.071029 5.65103,7.212429 9.00153,7.001939 0.87312,-0.0549 3.4925,-0.22044 5.82083,-0.36796 z M 61.51637,63.808466 c 4.093697,-0.755456 5.637877,-1.06392 6.724858,-1.343352 0.526206,-0.135272 1.276259,-0.24595 1.666785,-0.24595 1.045064,0 2.204655,-0.689308 3.989872,-2.37174 4.520476,-4.260208 10.032517,-7.694388 15.532504,-9.677251 1.537946,-0.554462 1.803376,-0.847229 2.869064,-3.16455 1.487902,-3.235421 2.545504,-5.525529 3.031285,-6.56388 0.284026,-0.607101 0.375471,-1.103567 0.230054,-1.248984 -0.364288,-0.364288 -8.22091,1.580245 -9.685734,2.397243 -0.252687,0.140935 -0.57658,0.256246 -0.719763,0.256246 -0.497218,0 -5.950046,2.567595 -8.213514,3.867531 -1.390817,0.798762 -5.627726,3.567714 -5.820834,3.804096 -0.07276,0.08907 -0.965729,0.822644 -1.984375,1.630175 -2.849945,2.25929 -7.390572,6.937131 -9.694628,9.987591 -1.143632,1.514114 -2.079331,2.853567 -2.079331,2.976562 0,0.346148 1.04701,0.269587 4.153757,-0.303737 z m 72.81853,-4.180654 c 0.52522,-0.552119 1.66553,-2.427353 2.53402,-4.167188 0.8685,-1.739834 1.64073,-3.222866 1.71607,-3.295626 0.33237,-0.320964 1.32758,-2.472583 1.32715,-2.869275 -2.6e-4,-0.240909 -0.56581,-0.79007 -1.25677,-1.220358 -0.69097,-0.430287 -1.31583,-0.847006 -1.38859,-0.926041 -0.0728,-0.07904 -0.4165,-0.303726 -0.76385,-0.499311 -0.34736,-0.195585 -1.03197,-0.582538 -1.52136,-0.859895 -0.48938,-0.277358 -1.27674,-0.722214 -1.74969,-0.988568 -8.6704,-4.883051 -22.65885,-7.82144 -31.66833,-6.652197 -2.297033,0.298106 -3.389779,0.939698 -4.825805,2.833407 -1.245476,1.642428 -3.920964,6.812895 -3.920964,7.577391 0,0.674534 0.124562,0.775498 5.55625,4.503581 2.110049,1.448251 4.355249,2.999362 4.989339,3.446912 0.63409,0.447551 1.4207,0.992322 1.74802,1.210603 0.32733,0.218282 1.29681,0.873125 2.15441,1.455209 l 1.55927,1.058333 3.30729,0.147856 c 1.81901,0.08132 7.34409,0.170618 12.27795,0.198438 l 8.97065,0.05058 z"
         id="path143" /></g></g></svg>
