<?xml version="1.0" encoding="UTF-8" standalone="no"?>
<!-- Created with Inkscape (http://www.inkscape.org/) -->

<svg
   width="57.58918mm"
   height="57.535992mm"
   viewBox="0 0 57.58918 57.535992"
   version="1.1"
   id="svg1"
   xml:space="preserve"
   xmlns="http://www.w3.org/2000/svg"
   xmlns:svg="http://www.w3.org/2000/svg"><defs
     id="defs1" /><g
     id="layer1"
     transform="translate(-147.89015,-335.3121)"><g
       id="g145"
       transform="translate(-73.723153,-4.0957307)"><ellipse
         style="display:inline;fill:#f7b11e;fill-opacity:1;stroke-width:0.265732"
         id="path149"
         ry="28.059265"
         rx="27.911974"
         cy="368.12973"
         cx="250.40079" /><path
         style="display:inline;fill:#53110e"
         d="m 244.71021,396.41573 c -16.5055,-3.46845 -26.61362,-20.07445 -21.9625,-36.08081 1.41275,-4.86183 3.69219,-8.73703 7.27276,-12.36415 9.85452,-9.98265 25.32139,-11.40217 36.91438,-3.38795 2.28622,1.58046 5.91467,5.26762 7.40387,7.52366 3.54083,5.36414 5.13764,11.15832 4.8255,17.50981 -0.58382,11.87947 -8.28713,22.05033 -19.63735,25.92768 -4.29545,1.46737 -10.30087,1.82071 -14.81666,0.87176 z m 8.79852,-1.14487 c 0.47356,-0.24691 1.16495,-0.90819 1.53641,-1.46951 0.69473,-1.0498 1.7753,-4.19085 1.56101,-4.53759 -0.0662,-0.10707 -1.86008,-1.34392 -3.98646,-2.74857 l -3.86614,-2.55389 -4.93209,0.17969 c -7.28819,0.26554 -6.81276,0.11025 -7.89649,2.5792 -1.10195,2.51045 -1.01871,3.22128 0.56237,4.80236 1.31996,1.31995 3.19981,2.25552 6.3891,3.17974 4.27154,1.23784 8.87637,1.48409 10.63229,0.56857 z m 5.62127,-0.88487 c 5.14423,-1.66041 10.13868,-5.27997 13.43388,-9.73576 l 1.17401,-1.5875 -3.06387,-0.0745 -3.06388,-0.0745 -2.32184,2.00951 c -1.63469,1.41479 -3.14077,2.41564 -5.08894,3.38177 l -2.7671,1.37227 -0.63458,1.5875 c -0.34902,0.87312 -0.86042,2.15852 -1.13644,2.85643 l -0.50186,1.26894 0.99312,-0.18185 c 0.54622,-0.10001 1.88609,-0.47007 2.9775,-0.82235 z m -10.72365,-11.23545 c 0.52271,-0.23817 1.25458,-1.43764 3.05952,-5.01436 1.30486,-2.58573 2.37246,-4.92208 2.37246,-5.1919 0,-0.26983 -0.86947,-1.67543 -1.93216,-3.12357 -1.06268,-1.44814 -2.44859,-3.40688 -3.07979,-4.35277 -2.38617,-3.57578 -2.35332,-3.56379 -8.85312,-3.23297 l -4.20777,0.21417 -0.81931,0.94795 c -0.92501,1.07025 -4.13012,8.89765 -4.12795,10.0811 0.003,1.56395 2.91689,6.34289 5.66803,9.29548 l 0.96332,1.03386 5.13485,-0.17197 c 3.01084,-0.10084 5.41906,-0.30147 5.82192,-0.48502 z m 25.58448,-1.27156 c 1.45284,-0.69256 3.40071,-6.17198 3.9528,-11.11937 0.35882,-3.21538 0.14233,-5.01477 -0.85138,-7.0766 -0.89147,-1.84967 -0.92375,-1.86592 -3.93056,-1.97793 l -1.9756,-0.0736 -0.82358,2.38125 c -1.10515,3.19539 -1.74292,4.5266 -3.16102,6.59795 l -1.19493,1.74538 0.56587,1.64917 c 0.54447,1.58678 1.15264,7.67197 0.82277,8.23232 -0.20855,0.35426 5.78365,0.0285 6.59563,-0.35857 z m -44.02812,-8.56682 c 0.17517,-0.10826 0.63261,-1.23288 1.01654,-2.49917 0.89607,-2.95541 1.97093,-5.32984 3.16532,-6.99234 l 0.94877,-1.32062 -0.5498,-1.27805 c -0.72699,-1.68994 -1.16877,-5.00342 -0.94547,-7.09124 l 0.17967,-1.67991 -0.75147,0.14987 c -0.41332,0.0824 -1.52539,0.27864 -2.47127,0.43601 -3.57389,0.59462 -4.06625,0.9919 -5.53206,4.46375 -1.31429,3.11296 -1.92819,5.90227 -2.07511,9.42832 -0.12038,2.88918 -0.0776,3.30842 0.46742,4.57525 0.84835,1.97204 1.25377,2.18531 3.96721,2.08695 1.24397,-0.0451 2.40508,-0.17056 2.58025,-0.27882 z m 30.33452,-0.71243 c 2.42868,-0.1652 4.266,-0.42052 4.77947,-0.66418 0.95784,-0.45453 2.41048,-2.27317 3.41454,-4.27488 0.90085,-1.79593 2.01584,-5.22679 2.01584,-6.2028 0,-1.54586 -2.4388,-5.46289 -5.1832,-8.32489 l -1.29909,-1.35475 -5.52706,-0.17433 c -4.33943,-0.13688 -5.63891,-0.10008 -6.04758,0.17127 -0.6844,0.45442 -5.20157,9.1276 -5.21556,10.01412 -0.006,0.41141 0.49327,1.38515 1.24593,2.42755 0.69122,0.95732 2.24063,3.11576 3.44313,4.79654 2.04102,2.85282 3.06724,3.83242 4.03135,3.84821 0.21828,0.004 2.17228,-0.11426 4.34223,-0.26186 z m -29.30654,-20.13736 3.02833,-0.57016 2.0383,-1.70142 c 1.24879,-1.0424 3.08926,-2.21668 4.75159,-3.03167 l 2.71329,-1.33024 1.05941,-2.26072 c 0.58267,-1.2434 0.99361,-2.32652 0.9132,-2.40694 -0.22078,-0.22077 -3.74777,0.74289 -5.5471,1.5156 -2.21301,0.95037 -4.51792,2.27218 -6.14111,3.52178 -2.6078,2.00759 -6.957,6.83393 -6.15831,6.83393 0.17273,0 1.67681,-0.25658 3.3424,-0.57016 z m 32.96396,-1.74495 c 0.22481,-0.25466 0.90974,-1.46577 1.52206,-2.69135 l 1.1133,-2.22833 -0.62115,-0.48377 c -1.29608,-1.00942 -6.01226,-3.13177 -8.42636,-3.79199 -1.87488,-0.51275 -3.43543,-0.72746 -6.14177,-0.84502 -3.58114,-0.15556 -3.63951,-0.14897 -4.49791,0.50726 -0.76539,0.58512 -2.58949,3.67864 -2.58949,4.39155 0,0.22992 5.87963,4.50542 7.27604,5.29092 0.34527,0.19421 2.51487,0.30046 6.24285,0.30571 5.11567,0.007 5.75646,-0.0404 6.12243,-0.45498 z"
         id="path146" /></g></g></svg>
